<svg width="30" height="30" viewBox="0 0 30 30" fill="none" xmlns="http://www.w3.org/2000/svg">
<path fill-rule="evenodd" clip-rule="evenodd" d="M25.3876 4.6125C22.9843 2.20919 19.8221 0.71352 16.4397 0.380348C13.0573 0.0471757 9.66408 0.897112 6.8381 2.78534C4.01213 4.67356 1.9283 7.48325 0.941676 10.7356C-0.0449453 13.988 0.126688 17.4819 1.42733 20.622C2.72797 23.762 5.07715 26.3539 8.07458 27.9561C11.072 29.5582 14.5323 30.0715 17.8657 29.4084C21.1991 28.7454 24.1995 26.947 26.3557 24.3197C28.5118 21.6924 29.6902 18.3988 29.6902 15C29.6927 13.0705 29.3138 11.1595 28.5755 9.3769C27.8371 7.59427 26.7537 5.97512 25.3876 4.6125ZM23.8074 23.8075C21.7698 25.845 19.0887 27.113 16.2209 27.3954C13.3532 27.6778 10.4763 26.9571 8.0804 25.3561C5.68447 23.7551 3.91779 21.3729 3.08135 18.6154C2.24491 15.8579 2.39048 12.8957 3.49325 10.2334C4.59602 7.57122 6.58776 5.37372 9.1291 4.01537C11.6704 2.65702 14.6042 2.22187 17.4304 2.78405C20.2566 3.34624 22.8004 4.87098 24.6285 7.09847C26.4566 9.32597 27.4557 12.1184 27.4557 15C27.4578 16.636 27.1366 18.2563 26.5105 19.7678C25.8844 21.2793 24.9658 22.6521 23.8075 23.8074L23.8074 23.8075Z" fill="#FFB74B"/>
<path fill-rule="evenodd" clip-rule="evenodd" d="M23.1377 6.86245C21.2552 4.97974 18.778 3.80802 16.1284 3.54694C13.4788 3.28586 10.8207 3.95157 8.60687 5.43064C6.39306 6.90971 4.7606 9.11063 3.98762 11.6584C3.21465 14.2062 3.34899 16.9431 4.36775 19.4029C5.38651 21.8628 7.22667 23.8932 9.57468 25.1484C11.9227 26.4036 14.6333 26.8057 17.2446 26.2864C19.8559 25.7671 22.2063 24.3585 23.8954 22.3004C25.5846 20.2424 26.5078 17.6624 26.5079 15C26.51 13.4884 26.2133 11.9914 25.6349 10.5949C25.0565 9.19838 24.2078 7.92994 23.1377 6.86245ZM11.5943 18.4533C12.4746 19.3359 13.6594 19.8478 14.9054 19.8841C16.1514 19.9204 17.3641 19.4783 18.2943 18.6485C18.3406 18.6063 18.3948 18.5738 18.4537 18.5528C18.5127 18.5317 18.5752 18.5226 18.6377 18.5259C18.7003 18.5292 18.7615 18.5448 18.8179 18.5719C18.8744 18.5991 18.9248 18.6371 18.9665 18.6839C19.0081 18.7306 19.04 18.7852 19.0604 18.8444C19.0808 18.9036 19.0892 18.9662 19.0853 19.0287C19.0813 19.0912 19.0649 19.1522 19.0372 19.2084C19.0095 19.2645 18.9709 19.3145 18.9236 19.3556C18.2078 19.9946 17.3448 20.4464 16.4118 20.6706V22.657C16.4104 22.7818 16.3598 22.9009 16.2711 22.9886C16.1824 23.0763 16.0627 23.1255 15.9379 23.1255C15.8132 23.1255 15.6934 23.0763 15.6047 22.9886C15.516 22.9009 15.4654 22.7818 15.464 22.657V20.8168C15.3265 20.8265 15.1877 20.8314 15.0477 20.8315C14.804 20.8316 14.5604 20.8165 14.3186 20.7863V22.657C14.3171 22.7818 14.2666 22.9009 14.1779 22.9886C14.0891 23.0763 13.9694 23.1255 13.8447 23.1255C13.7199 23.1255 13.6002 23.0763 13.5115 22.9886C13.4228 22.9009 13.3722 22.7818 13.3708 22.657V20.5866C12.17 20.2254 11.1176 19.487 10.3694 18.4807C9.62133 17.4744 9.21733 16.2539 9.21733 15C9.21733 13.7461 9.62133 12.5255 10.3694 11.5193C11.1176 10.513 12.17 9.77452 13.3708 9.41333V7.34295C13.3722 7.21821 13.4228 7.09906 13.5115 7.01135C13.6002 6.92365 13.7199 6.87446 13.8447 6.87446C13.9694 6.87446 14.0891 6.92365 14.1779 7.01135C14.2666 7.09906 14.3171 7.21821 14.3186 7.34295V9.2137C14.5604 9.18351 14.804 9.16838 15.0477 9.16839C15.1876 9.16839 15.3263 9.17333 15.464 9.1832V7.34295C15.4654 7.21821 15.516 7.09906 15.6047 7.01135C15.6934 6.92365 15.8132 6.87446 15.9379 6.87446C16.0627 6.87446 16.1824 6.92365 16.2711 7.01135C16.3598 7.09906 16.4104 7.21821 16.4118 7.34295V9.32939C17.3448 9.55358 18.2078 10.0053 18.9236 10.6443C18.9701 10.6857 19.0079 10.7357 19.035 10.7917C19.0621 10.8476 19.0779 10.9083 19.0815 10.9704C19.0851 11.0325 19.0764 11.0946 19.056 11.1533C19.0356 11.212 19.0038 11.2661 18.9625 11.3126C18.9212 11.359 18.8711 11.3968 18.8152 11.4239C18.7592 11.451 18.6985 11.4668 18.6364 11.4704C18.5744 11.474 18.5122 11.4654 18.4535 11.445C18.3948 11.4246 18.3407 11.3928 18.2943 11.3515C17.345 10.5065 16.1039 10.0648 14.8343 10.1202C13.5647 10.1755 12.3667 10.7236 11.4946 11.648C10.6226 12.5723 10.1451 13.8002 10.1638 15.0709C10.1824 16.3415 10.6955 17.5549 11.5943 18.4533Z" fill="#FFB74B"/>
</svg>
