<svg width="32" height="32" viewBox="0 0 32 32" fill="none" xmlns="http://www.w3.org/2000/svg">
<g clip-path="url(#clip0_3917_123730)">
<path d="M18.3887 9.75899C18.3887 9.45453 18.2677 9.16236 18.0522 8.94708C17.8369 8.73181 17.545 8.61084 17.2406 8.61084H17.074V10.9071H17.2406C17.545 10.9071 17.8369 10.7862 18.0522 10.5709C18.2677 10.3556 18.3887 10.0635 18.3887 9.75899Z" fill="#06DAA7"/>
<path d="M15.926 5.16626H15.7594C15.3493 5.16626 14.9703 5.38512 14.7653 5.74033C14.56 6.09555 14.56 6.53328 14.7653 6.88848C14.9703 7.2437 15.3494 7.46256 15.7594 7.46256H15.926V5.16626Z" fill="#06DAA7"/>
<path d="M16.5002 16.0741C18.6317 16.0741 20.676 15.2274 22.1833 13.7201C23.6905 12.2129 24.5372 10.1685 24.5372 8.03705C24.5372 5.90556 23.6905 3.86119 22.1833 2.35397C20.676 0.846744 18.6317 0 16.5002 0C14.3687 0 12.3243 0.846744 10.8171 2.35397C9.30988 3.86119 8.46313 5.90556 8.46313 8.03705C8.46313 10.1685 9.30988 12.2129 10.8171 13.7201C12.3243 15.2274 14.3687 16.0741 16.5002 16.0741ZM15.7595 8.61112C14.9392 8.61112 14.1811 8.17339 13.771 7.46297C13.3607 6.75256 13.3607 5.87708 13.771 5.16667C14.1811 4.45626 14.9392 4.01852 15.7595 4.01852H15.9261V2.62356H17.0743V4.01852H17.2409C17.8498 4.01852 18.4339 4.26046 18.8644 4.69101C19.2952 5.12182 19.5372 5.70591 19.5372 6.31482H18.389C18.389 6.01036 18.268 5.71819 18.0525 5.50292C17.8372 5.28764 17.5453 5.16667 17.2409 5.16667H17.0743V7.46297H17.2409C18.0612 7.46297 18.8193 7.90071 19.2294 8.61112C19.6397 9.32153 19.6397 10.197 19.2294 10.9074C18.8193 11.6178 18.0612 12.0556 17.2409 12.0556H17.0743V13.4505H15.9261V12.0556H15.7595C15.1506 12.0556 14.5665 11.8136 14.136 11.3831C13.7052 10.9523 13.4632 10.3682 13.4632 9.75927H14.6114C14.6114 10.0637 14.7324 10.3559 14.9479 10.5712C15.1632 10.7865 15.4551 10.9074 15.7595 10.9074H15.9261V8.61112H15.7595Z" fill="#06DAA7"/>
<path d="M11.9075 20.0925V22.9629H9.61118C9.29416 22.9629 9.03711 23.22 9.03711 23.537V29.2777C9.03711 29.43 9.09759 29.576 9.20523 29.6837C9.31287 29.7913 9.45895 29.8518 9.61118 29.8518H11.9075V32.7222H13.0556V29.8518H15.3519C15.5042 29.8518 15.6502 29.7913 15.7579 29.6837C15.8655 29.576 15.926 29.43 15.926 29.2777V23.537C15.926 23.3847 15.8655 23.2387 15.7579 23.131C15.6502 23.0234 15.5042 22.9629 15.3519 22.9629H13.0556V20.0925H11.9075Z" fill="#06DAA7"/>
<path d="M25.6852 29.8518H27.9815V32.7222H29.1296V29.8518H31.4259C31.5781 29.8518 31.7242 29.7913 31.8319 29.6837C31.9395 29.576 32 29.43 32 29.2777V23.537C32 23.3847 31.9395 23.2387 31.8319 23.131C31.7242 23.0234 31.5781 22.9629 31.4259 22.9629H29.1296V20.0925H27.9815V22.9629H25.6852C25.3681 22.9629 25.1111 23.22 25.1111 23.537V29.2777C25.1111 29.43 25.1716 29.576 25.2792 29.6837C25.3868 29.7913 25.5329 29.8518 25.6852 29.8518Z" fill="#06DAA7"/>
<path d="M1.57407 25.8335H3.87037V28.7039H5.01852V25.8335H7.31482C7.46706 25.8335 7.61314 25.773 7.72078 25.6654C7.82841 25.5577 7.8889 25.4116 7.8889 25.2594V19.5187C7.8889 19.3664 7.82842 19.2204 7.72078 19.1127C7.61314 19.0051 7.46706 18.9446 7.31482 18.9446H5.01852V16.0742H3.87037V18.9446H1.57407C1.25705 18.9446 1 19.2016 1 19.5187V25.2594C1 25.4116 1.06048 25.5577 1.16812 25.6654C1.27576 25.773 1.42184 25.8335 1.57407 25.8335ZM2.14815 20.0927H6.74075V24.6853H2.14815V20.0927Z" fill="#06DAA7"/>
<path d="M19.9443 16.6483V19.5187H17.648C17.331 19.5187 17.074 19.7757 17.074 20.0928V25.8335C17.074 25.9857 17.1345 26.1318 17.2421 26.2395C17.3497 26.3471 17.4958 26.4076 17.648 26.4076H19.9443V29.278H21.0925V26.4076H23.3888C23.541 26.4076 23.6871 26.3471 23.7948 26.2395C23.9024 26.1318 23.9629 25.9857 23.9629 25.8335V20.0928C23.9629 19.9405 23.9024 19.7944 23.7948 19.6868C23.6871 19.5792 23.541 19.5187 23.3888 19.5187H21.0925V16.6483H19.9443ZM22.8147 20.6668V25.2594H18.2221V20.6668H22.8147Z" fill="#06DAA7"/>
</g>
<defs>
<clipPath id="clip0_3917_123730">
<rect width="32" height="32" fill="white"/>
</clipPath>
</defs>
</svg>
