<svg width="32" height="32" viewBox="0 0 32 32" fill="none" xmlns="http://www.w3.org/2000/svg">
<path d="M13.2957 10.6982L15.9994 12.3955L18.7034 10.6982L15.9994 9.00127L13.2957 10.6982ZM13.0138 14.5885L15.6794 16.2614V12.9504L13.0138 11.2771V14.5885ZM18.9853 11.2771L16.3194 12.9504V16.2614L18.9853 14.5885V11.2771ZM17.2106 1.81791C17.0639 1.6033 16.8761 1.41993 16.658 1.27843C16.4399 1.13694 16.196 1.04012 15.9402 0.99359C15.6847 0.945859 15.4222 0.949341 15.1681 1.00383C14.9139 1.05833 14.6731 1.16274 14.4596 1.31103L12.8916 2.39135H17.6064L17.2106 1.81791ZM2.31173 12.0826L6.31365 17.8899V6.92191L2.81797 9.33151C1.92133 9.95263 1.69381 11.1869 2.31173 12.0826Z" fill="#854BFF"/>
<path d="M10.0963 19.2899H21.903V6.17409H10.0963V19.2899ZM12.3738 10.6982C12.3738 10.6698 12.3776 10.6422 12.385 10.6154C12.3875 10.6061 12.392 10.5981 12.3952 10.5891C12.4016 10.5722 12.4074 10.5552 12.4163 10.5395C12.4221 10.5296 12.4298 10.521 12.4368 10.5117C12.4461 10.4989 12.4547 10.4858 12.4659 10.4746C12.4746 10.4656 12.4851 10.4589 12.4947 10.4509C12.5046 10.4429 12.513 10.4339 12.5238 10.4269L15.8294 8.35201C15.8804 8.32003 15.9393 8.30307 15.9995 8.30307C16.0597 8.30307 16.1186 8.32003 16.1696 8.35201L19.4752 10.4269C19.4861 10.4336 19.4944 10.4429 19.5043 10.4506C19.5142 10.4586 19.5245 10.4656 19.5334 10.4742C19.5446 10.4854 19.5533 10.4986 19.5622 10.511C19.569 10.5206 19.577 10.529 19.5827 10.5392C19.5914 10.5546 19.5971 10.5715 19.6035 10.5882C19.6067 10.5971 19.6115 10.6054 19.6141 10.615C19.6211 10.6416 19.6253 10.6694 19.6253 10.6976V14.7645C19.6253 14.8187 19.6115 14.872 19.5852 14.9194C19.559 14.9668 19.5211 15.0068 19.4752 15.0355L16.1696 17.1104C16.16 17.1165 16.1494 17.119 16.1395 17.1238C16.1296 17.1286 16.12 17.1331 16.1098 17.1373C16.0739 17.1504 16.0371 17.1597 15.9997 17.1597C15.9509 17.1588 15.903 17.1465 15.8598 17.1238C15.8499 17.119 15.8394 17.1165 15.8298 17.1104L12.5242 15.0355C12.4782 15.0068 12.4404 14.9668 12.4141 14.9194C12.3879 14.872 12.3741 14.8187 12.3741 14.7645L12.3738 10.6982ZM29.6851 19.9171L25.6867 14.1158V25.0742L29.1789 22.6682C29.3935 22.5214 29.5768 22.3336 29.7183 22.1154C29.8597 21.8973 29.9565 21.6533 30.0029 21.3974C30.0506 21.142 30.047 20.8795 29.9925 20.6254C29.9379 20.3713 29.8335 20.1305 29.6851 19.9171ZM24.2371 8.02497C24.2371 9.47265 25.415 10.6509 26.8627 10.6509C28.3104 10.6509 29.4886 9.47297 29.4886 8.02497C29.4886 6.57697 28.3104 5.39905 26.8627 5.39905C25.415 5.39905 24.2371 6.57729 24.2371 8.02497ZM25.72 7.90401C25.7497 7.87427 25.785 7.85067 25.8238 7.83457C25.8626 7.81847 25.9042 7.81018 25.9462 7.81018C25.9883 7.81018 26.0299 7.81847 26.0687 7.83457C26.1075 7.85067 26.1428 7.87427 26.1725 7.90401L26.487 8.21857L27.5526 7.15265C27.5823 7.12294 27.6176 7.09937 27.6564 7.08329C27.6953 7.06721 27.7369 7.05894 27.7789 7.05894C27.8209 7.05894 27.8625 7.06721 27.9013 7.08329C27.9401 7.09937 27.9754 7.12294 28.0051 7.15265C28.0348 7.18236 28.0584 7.21763 28.0745 7.25645C28.0905 7.29527 28.0988 7.33687 28.0988 7.37889C28.0988 7.4209 28.0905 7.46251 28.0745 7.50133C28.0584 7.54015 28.0348 7.57542 28.0051 7.60513L26.7133 8.89729C26.6836 8.92711 26.6484 8.95077 26.6095 8.96692C26.5707 8.98307 26.5291 8.99138 26.487 8.99138C26.445 8.99138 26.4033 8.98307 26.3645 8.96692C26.3257 8.95077 26.2904 8.92711 26.2608 8.89729L25.72 8.35649C25.66 8.29648 25.6263 8.2151 25.6263 8.13025C25.6263 8.0454 25.66 7.96402 25.72 7.90401Z" fill="#854BFF"/>
<path d="M23.5971 8.02493C23.5971 6.89597 24.1735 5.89917 25.0467 5.31229V5.00861C25.0461 4.4843 24.8376 3.98163 24.4669 3.61089C24.0961 3.24014 23.5934 3.0316 23.0691 3.03101H8.93121C8.4069 3.0316 7.90424 3.24014 7.53349 3.61089C7.16275 3.98163 6.95421 4.4843 6.95361 5.00861V26.9904C6.95361 28.0825 7.84065 28.9712 8.93121 28.9712H23.0695C24.1597 28.9712 25.0471 28.0825 25.0471 26.9904V10.7376C24.6011 10.4394 24.2355 10.0358 23.9826 9.5627C23.7297 9.08957 23.5973 8.5614 23.5971 8.02493ZM13.7277 26.1337C13.728 26.2028 13.7059 26.2701 13.6647 26.3256C13.6236 26.381 13.5656 26.4217 13.4994 26.4414C13.4332 26.4611 13.3624 26.4589 13.2976 26.4351C13.2328 26.4112 13.1774 26.367 13.1399 26.3091L11.6333 24.007V26.1337C11.6333 26.2186 11.5996 26.3 11.5396 26.36C11.4796 26.42 11.3982 26.4537 11.3133 26.4537C11.2284 26.4537 11.147 26.42 11.087 26.36C11.027 26.3 10.9933 26.2186 10.9933 26.1337V22.9337C10.9931 22.8647 11.0152 22.7974 11.0564 22.742C11.0976 22.6866 11.1556 22.646 11.2217 22.6263C11.2879 22.6066 11.3587 22.6089 11.4235 22.6327C11.4882 22.6566 11.5436 22.7008 11.5811 22.7587L13.0877 25.0608V22.934C13.0877 22.8492 13.1214 22.7678 13.1814 22.7078C13.2414 22.6478 13.3228 22.614 13.4077 22.614C13.4926 22.614 13.574 22.6478 13.634 22.7078C13.694 22.7678 13.7277 22.8492 13.7277 22.934V26.1337ZM16.8765 24.2137C16.9614 24.2137 17.0428 24.2474 17.1028 24.3075C17.1628 24.3675 17.1965 24.4489 17.1965 24.5337C17.1965 24.6186 17.1628 24.7 17.1028 24.76C17.0428 24.82 16.9614 24.8537 16.8765 24.8537H15.5946V26.1337C15.5946 26.2186 15.5609 26.3 15.5008 26.36C15.4408 26.42 15.3594 26.4537 15.2746 26.4537C15.1897 26.4537 15.1083 26.42 15.0483 26.36C14.9883 26.3 14.9546 26.2186 14.9546 26.1337V22.9337C14.9546 22.8489 14.9883 22.7675 15.0483 22.7075C15.1083 22.6474 15.1897 22.6137 15.2746 22.6137H16.8765C16.9614 22.6137 17.0428 22.6474 17.1028 22.7075C17.1628 22.7675 17.1965 22.8489 17.1965 22.9337C17.1965 23.0186 17.1628 23.1 17.1028 23.16C17.0428 23.22 16.9614 23.2537 16.8765 23.2537H15.5946V24.2137H16.8765ZM20.6861 23.2537H19.8688V26.1337C19.8688 26.2186 19.8351 26.3 19.7751 26.36C19.7151 26.42 19.6337 26.4537 19.5488 26.4537C19.4639 26.4537 19.3826 26.42 19.3225 26.36C19.2625 26.3 19.2288 26.2186 19.2288 26.1337V23.2537H18.4112C18.3263 23.2537 18.245 23.22 18.1849 23.16C18.1249 23.1 18.0912 23.0186 18.0912 22.9337C18.0912 22.8489 18.1249 22.7675 18.1849 22.7075C18.245 22.6474 18.3263 22.6137 18.4112 22.6137H20.6858C20.7706 22.6137 20.8521 22.6474 20.9121 22.7073C20.9721 22.7673 21.0059 22.8487 21.0059 22.9336C21.006 23.0184 20.9723 23.0998 20.9123 23.1599C20.8523 23.2199 20.771 23.2537 20.6861 23.2537ZM22.5431 19.6099C22.5431 19.6948 22.5093 19.7761 22.4493 19.8362C22.3893 19.8962 22.3079 19.9299 22.2231 19.9299H9.77633C9.69146 19.9299 9.61007 19.8962 9.55006 19.8362C9.49005 19.7761 9.45633 19.6948 9.45633 19.6099V5.85405C9.45633 5.76918 9.49005 5.68778 9.55006 5.62777C9.61007 5.56776 9.69146 5.53405 9.77633 5.53405H22.2231C22.3079 5.53405 22.3893 5.56776 22.4493 5.62777C22.5093 5.68778 22.5431 5.76918 22.5431 5.85405V19.6099ZM14.7863 30.1849C15.0852 30.6163 15.5428 30.9118 16.059 31.0067C16.5752 31.1017 17.108 30.9883 17.5408 30.6915L19.1066 29.6115H14.3907L14.7863 30.1849Z" fill="#854BFF"/>
</svg>
