<svg width="64" height="64" viewBox="0 0 64 64" fill="none" xmlns="http://www.w3.org/2000/svg">
<path d="M26.94 14.12H15.92C15.39 14.1216 14.8822 14.3328 14.5075 14.7075C14.1328 15.0822 13.9216 15.59 13.92 16.12V27.14C13.9216 27.67 14.1328 28.1778 14.5075 28.5525C14.8822 28.9272 15.39 29.1384 15.92 29.14H26.94C27.47 29.1384 27.9778 28.9272 28.3525 28.5525C28.7272 28.1778 28.9384 27.67 28.94 27.14V16.12C28.9384 15.59 28.7272 15.0822 28.3525 14.7075C27.9778 14.3328 27.47 14.1216 26.94 14.12ZM21.43 23.36C20.9754 23.3536 20.5415 23.1685 20.2223 22.8448C19.9031 22.521 19.7241 22.0846 19.7241 21.63C19.7241 21.1753 19.9031 20.7389 20.2224 20.4152C20.5416 20.0914 20.9755 19.9064 21.4301 19.9C21.8847 19.9064 22.3185 20.0915 22.6378 20.4152C22.957 20.739 23.136 21.1754 23.136 21.63C23.1359 22.0847 22.957 22.5211 22.6377 22.8448C22.3185 23.1686 21.8846 23.3536 21.43 23.36ZM26.94 34.86H15.92C15.39 34.8616 14.8822 35.0728 14.5075 35.4475C14.1328 35.8222 13.9216 36.33 13.92 36.86V47.88C13.9216 48.41 14.1328 48.9178 14.5075 49.2925C14.8822 49.6672 15.39 49.8784 15.92 49.88H26.94C27.47 49.8784 27.9778 49.6672 28.3525 49.2925C28.7272 48.9178 28.9384 48.41 28.94 47.88V36.86C28.9384 36.33 28.7272 35.8222 28.3525 35.4475C27.9778 35.0728 27.47 34.8616 26.94 34.86ZM21.43 44.1C20.9754 44.0936 20.5415 43.9085 20.2223 43.5848C19.9031 43.261 19.7241 42.8246 19.7241 42.37C19.7241 41.9153 19.9031 41.4789 20.2224 41.1552C20.5416 40.8314 20.9755 40.6464 21.4301 40.64C21.8847 40.6464 22.3185 40.8315 22.6378 41.1552C22.957 41.479 23.136 41.9154 23.136 42.37C23.1359 42.8247 22.957 43.2611 22.6377 43.5848C22.3185 43.9086 21.8846 44.0936 21.43 44.1ZM48.08 29.14C48.61 29.1384 49.1178 28.9272 49.4925 28.5525C49.8672 28.1778 50.0784 27.67 50.08 27.14V16.12C50.0784 15.59 49.8672 15.0822 49.4925 14.7075C49.1178 14.3328 48.61 14.1216 48.08 14.12H37.06C36.53 14.1216 36.0222 14.3328 35.6475 14.7075C35.2728 15.0822 35.0616 15.59 35.06 16.12V27.14C35.0616 27.67 35.2728 28.1778 35.6475 28.5525C36.0222 28.9272 36.53 29.1384 37.06 29.14H48.08ZM42.57 19.9C43.0246 19.9064 43.4585 20.0915 43.7777 20.4152C44.0969 20.739 44.2759 21.1754 44.2759 21.63C44.2759 22.0847 44.0969 22.5211 43.7776 22.8448C43.4584 23.1686 43.0245 23.3536 42.5699 23.36C42.1153 23.3536 41.6815 23.1685 41.3622 22.8448C41.043 22.521 40.864 22.0846 40.864 21.63C40.8641 21.1753 41.043 20.7389 41.3623 20.4152C41.6815 20.0914 42.1154 19.9064 42.57 19.9ZM48.0771 42.772V37.5884C48.077 37.3954 48.0003 37.2104 47.8639 37.0739C47.7275 36.9374 47.5426 36.8606 47.3496 36.8604H42.165C41.8998 36.8604 41.6454 36.755 41.4579 36.5675C41.2704 36.3799 41.165 36.1256 41.165 35.8604C41.165 35.5952 41.2704 35.3408 41.4579 35.1533C41.6454 34.9657 41.8998 34.8604 42.165 34.8604H47.3496C48.0728 34.8612 48.7661 35.149 49.2774 35.6604C49.7888 36.1718 50.0764 36.8652 50.0771 37.5884V42.772C50.0771 43.0372 49.9718 43.2916 49.7842 43.4791C49.5967 43.6666 49.3423 43.772 49.0771 43.772C48.8119 43.772 48.5575 43.6666 48.37 43.4791C48.1825 43.2916 48.0771 43.0372 48.0771 42.772ZM38.3857 36.3199V39.3164C38.3806 39.5782 38.273 39.8276 38.0861 40.011C37.8991 40.1944 37.6477 40.2971 37.3858 40.2971C37.1239 40.2971 36.8724 40.1944 36.6854 40.011C36.4985 39.8277 36.3908 39.5783 36.3857 39.3164V36.3198C36.3908 36.0579 36.4983 35.8085 36.6853 35.625C36.8723 35.4416 37.1238 35.3389 37.3857 35.3389C37.6477 35.3389 37.8992 35.4416 38.0861 35.625C38.2731 35.8085 38.3807 36.058 38.3857 36.3199ZM43.165 40.6397V43.6362C43.1599 43.898 43.0523 44.1474 42.8654 44.3308C42.6784 44.5142 42.4269 44.6169 42.1651 44.6169C41.9032 44.6169 41.6517 44.5142 41.4647 44.3309C41.2778 44.1475 41.1701 43.8981 41.165 43.6363V40.6396C41.1703 40.3779 41.278 40.1287 41.465 39.9455C41.6519 39.7623 41.9033 39.6597 42.165 39.6597C42.4268 39.6597 42.6781 39.7623 42.8651 39.9455C43.052 40.1287 43.1597 40.378 43.165 40.6397ZM44.2979 49.875H37.3857C37.1205 49.875 36.8662 49.7696 36.6786 49.5821C36.4911 49.3946 36.3857 49.1402 36.3857 48.875C36.3857 48.6098 36.4911 48.3554 36.6786 48.1679C36.8662 47.9804 37.1205 47.875 37.3857 47.875H44.2979C44.5631 47.875 44.8174 47.9804 45.005 48.1679C45.1925 48.3554 45.2979 48.6098 45.2979 48.875C45.2979 49.1402 45.1925 49.3946 45.005 49.5821C44.8174 49.7696 44.5631 49.875 44.2979 49.875ZM60 8.375V18.5C60 18.7652 59.8946 19.0196 59.7071 19.2071C59.5196 19.3946 59.2652 19.5 59 19.5C58.7348 19.5 58.4804 19.3946 58.2929 19.2071C58.1054 19.0196 58 18.7652 58 18.5V8.375C57.9993 7.74533 57.7488 7.14165 57.3036 6.69641C56.8583 6.25117 56.2547 6.00071 55.625 6H45.6211C45.3559 6 45.1015 5.89464 44.914 5.70711C44.7264 5.51957 44.6211 5.26522 44.6211 5C44.6211 4.73478 44.7264 4.48043 44.914 4.29289C45.1015 4.10536 45.3559 4 45.6211 4H55.625C56.7849 4.00132 57.8969 4.46268 58.7171 5.28287C59.5373 6.10305 59.9987 7.21508 60 8.375ZM60 45.6211V55.625C59.9987 56.7849 59.5373 57.8969 58.7171 58.7171C57.8969 59.5373 56.7849 59.9987 55.625 60H45.5C45.2348 60 44.9804 59.8946 44.7929 59.7071C44.6054 59.5196 44.5 59.2652 44.5 59C44.5 58.7348 44.6054 58.4804 44.7929 58.2929C44.9804 58.1054 45.2348 58 45.5 58H55.625C56.2547 57.9993 56.8583 57.7488 57.3036 57.3036C57.7488 56.8583 57.9993 56.2547 58 55.625V45.6211C58 45.3559 58.1054 45.1015 58.2929 44.914C58.4804 44.7264 58.7348 44.6211 59 44.6211C59.2652 44.6211 59.5196 44.7264 59.7071 44.914C59.8946 45.1015 60 45.3559 60 45.6211ZM18.3789 60H8.375C7.21508 59.9987 6.10305 59.5373 5.28287 58.7171C4.46268 57.8969 4.00132 56.7849 4 55.625V45.5C4.00389 45.2374 4.11095 44.9868 4.29806 44.8025C4.48517 44.6181 4.7373 44.5148 4.99998 44.5147C5.26265 44.5147 5.51479 44.6181 5.7019 44.8024C5.88902 44.9868 5.9961 45.2374 6 45.5V55.625C6.00071 56.2547 6.25117 56.8583 6.69641 57.3036C7.14165 57.7488 7.74533 57.9993 8.375 58H18.3789C18.6408 58.0051 18.8901 58.1127 19.0735 58.2997C19.2569 58.4867 19.3596 58.7381 19.3596 59C19.3596 59.2619 19.2569 59.5133 19.0735 59.7003C18.8901 59.8873 18.6408 59.9949 18.3789 60ZM4 18.3789V8.375C4.00132 7.21508 4.46268 6.10305 5.28287 5.28287C6.10305 4.46268 7.21508 4.00132 8.375 4H18.5C18.7652 4 19.0196 4.10536 19.2071 4.29289C19.3946 4.48043 19.5 4.73478 19.5 5C19.5 5.26522 19.3946 5.51957 19.2071 5.70711C19.0196 5.89464 18.7652 6 18.5 6H8.375C7.74533 6.00071 7.14165 6.25117 6.69641 6.69641C6.25117 7.14165 6.00071 7.74533 6 8.375V18.3789C6 18.6441 5.89464 18.8985 5.70711 19.086C5.51957 19.2736 5.26522 19.3789 5 19.3789C4.73478 19.3789 4.48043 19.2736 4.29289 19.086C4.10536 18.8985 4 18.6441 4 18.3789Z" fill="#A9D5FE"/>
</svg>
