<svg width="31" height="26" viewBox="0 0 31 26" fill="none" xmlns="http://www.w3.org/2000/svg">
<path d="M7.66061 6.93103C9.5704 6.93103 11.1261 5.3753 11.1261 3.46551C11.1261 1.55573 9.5704 0 7.66061 0C5.75082 0 4.1951 1.55573 4.1951 3.46551C4.1951 5.3753 5.74009 6.93103 7.66061 6.93103ZM7.66061 3.81958C6.95249 3.81958 6.36238 3.2402 6.36238 2.52135C6.36238 1.93125 6.74863 1.42698 7.29582 1.27677V1.03C7.29582 0.826145 7.45676 0.665208 7.66061 0.665208C7.86446 0.665208 8.0254 0.826145 8.0254 1.03V1.27677C8.56186 1.43771 8.95884 1.93125 8.95884 2.52135C8.95884 2.7252 8.7979 2.88614 8.59405 2.88614C8.39019 2.88614 8.22925 2.7252 8.23998 2.52135C8.23998 2.23166 8.0254 1.98489 7.73571 1.95271C7.71426 1.96344 7.70353 1.96343 7.68207 1.96343C7.66061 1.96343 7.63915 1.95271 7.62842 1.95271C7.33874 1.98489 7.11342 2.22093 7.11342 2.52135C7.11342 2.83249 7.36019 3.08999 7.68207 3.08999C8.39019 3.08999 8.9803 3.66937 8.9803 4.38822C8.9803 4.97833 8.58332 5.47187 8.04686 5.6328V5.90103C8.04686 6.09416 7.88592 6.26582 7.68207 6.26582C7.47822 6.26582 7.31728 6.10489 7.31728 5.90103V5.6328C6.78082 5.47187 6.38384 4.97833 6.38384 4.38822C6.38384 4.18437 6.54478 4.02343 6.74863 4.02343C6.95249 4.02343 7.11342 4.18437 7.11342 4.38822C7.11342 4.69937 7.36019 4.95687 7.68207 4.95687C7.99321 4.95687 8.25071 4.7101 8.25071 4.38822C8.25071 4.06635 7.97176 3.81958 7.66061 3.81958ZM21.8553 10.654C22.2093 10.654 22.499 10.3644 22.499 10.0103C22.499 9.8279 22.4239 9.66696 22.3059 9.55967C22.2952 9.54894 22.2844 9.54894 22.2737 9.52748L22.2415 9.4953C22.1342 9.40946 21.9947 9.36655 21.866 9.36655C21.6621 9.36655 21.469 9.47384 21.351 9.62405C21.3403 9.6455 21.3295 9.65623 21.3188 9.67769L21.2866 9.70988C21.2437 9.79571 21.2115 9.903 21.2115 10.0103C21.2115 10.3644 21.4905 10.654 21.8553 10.654ZM14.538 6.11561C14.5487 6.12634 14.5487 6.13707 14.5595 6.1478C14.6775 6.25509 14.8277 6.31947 15.0101 6.31947C15.2461 6.31947 15.45 6.20145 15.5573 6.01905C15.6109 5.91176 15.6538 5.80447 15.6538 5.67572C15.6538 5.32166 15.3641 5.03197 15.0101 5.0427C14.656 5.0427 14.3663 5.33239 14.3663 5.68645C14.3663 5.83666 14.42 5.98686 14.5165 6.09416L14.538 6.11561ZM7.61769 11.6733C7.60697 11.684 7.60696 11.7055 7.59624 11.727C7.59624 11.727 7.58551 11.727 7.58551 11.7377C7.55332 11.8235 7.53186 11.9094 7.53186 12.0059C7.53186 12.36 7.82155 12.6497 8.17561 12.6497C8.52967 12.6497 8.81936 12.36 8.81936 12.0059C8.81936 11.8343 8.75498 11.684 8.64769 11.566C8.52967 11.4373 8.35801 11.3622 8.17561 11.3622C7.93957 11.3622 7.72499 11.4802 7.61769 11.6733ZM1.33041 8.56186C1.545 8.56186 1.73812 8.4653 1.84541 8.30436C1.85614 8.2829 1.85614 8.27217 1.86687 8.25072C1.8776 8.22926 1.88833 8.21853 1.89906 8.19707C1.94198 8.11124 1.96343 8.01467 1.96343 7.90738C1.96343 7.55332 1.67375 7.26363 1.31968 7.26363C0.965623 7.26363 0.675937 7.55332 0.675937 7.90738C0.686666 8.2829 0.976353 8.56186 1.33041 8.56186ZM27.3486 6.93103H30.0309V25.2457H27.3486V6.93103ZM22.4346 8.75498C22.66 8.86228 22.8531 9.02321 22.9926 9.22707L27.9065 3.36895L28.5073 2.6501C28.5503 2.59646 28.5824 2.53208 28.5932 2.4677C28.5824 2.53208 28.561 2.59646 28.5073 2.6501L27.9065 3.36895L27.9494 4.5277C27.9602 4.72083 28.1211 4.88176 28.3142 4.88176H28.3357C28.5395 4.87103 28.6897 4.7101 28.6897 4.50624L28.6039 2.41406C28.6039 2.30677 28.561 2.2102 28.4752 2.14583C28.4322 2.11364 28.3786 2.09218 28.3249 2.07073C28.3571 2.08145 28.3786 2.08146 28.4 2.10291C28.4215 2.11364 28.443 2.1351 28.4537 2.14583C28.5503 2.23166 28.5932 2.34968 28.5824 2.45698C28.5932 2.33896 28.5503 2.22093 28.4537 2.14583C28.443 2.1351 28.4215 2.11364 28.4 2.10291C28.3786 2.09218 28.3571 2.08145 28.3249 2.07073C28.282 2.06 28.2284 2.06 28.1747 2.06L28.1211 2.07073L26.1147 2.3926C25.9109 2.42479 25.7821 2.60718 25.8036 2.81104C25.8358 3.01489 26.0182 3.14364 26.222 3.12218L27.3057 2.95052L22.4346 8.75498ZM28.1211 2.06C28.0567 2.08146 27.9923 2.11364 27.9494 2.17802C27.9923 2.12437 28.0567 2.08146 28.1211 2.06ZM20.5034 13.3471H23.1857V25.2457H20.5034V13.3471ZM20.9218 8.99103L16.3298 6.08343C16.2547 6.3302 16.1152 6.53405 15.9435 6.69499L20.5356 9.61332C20.6 9.37728 20.7394 9.16269 20.9218 8.99103ZM13.6689 10.2141H16.3512V25.235H13.6689V10.2141ZM9.39873 11.3729L14.2805 6.85593C14.0659 6.72718 13.905 6.54478 13.787 6.31947L8.90519 10.8364C9.10905 10.9652 9.29144 11.1476 9.39873 11.3729ZM6.82374 15.6216H9.50602V25.235H6.82374V15.6216ZM7.1778 11.0403L2.66083 8.30436C2.58572 8.55113 2.45697 8.76571 2.27458 8.93738L6.83447 11.6948C6.88811 11.448 7.01686 11.2227 7.1778 11.0403ZM0 12.4887H2.68229V25.2457H0V12.4887Z" fill="#0585FD"/>
</svg>
