<svg width="80" height="80" viewBox="0 0 80 80" fill="none" xmlns="http://www.w3.org/2000/svg">
<rect width="80" height="80" rx="40" fill="#A1A3B2" fill-opacity="0.12"/>
<path fill-rule="evenodd" clipRule="evenodd" d="M45.1533 35.7999C45.19 35.864 45.2542 35.9098 45.3367 35.9098C47.5367 35.9098 49.3333 37.7044 49.3333 39.902V45.341C49.3333 47.5385 47.5367 49.3332 45.3367 49.3332H34.9967C32.7875 49.3332 31 47.5385 31 45.341V39.902C31 37.7044 32.7875 35.9098 34.9967 35.9098C35.07 35.9098 35.1433 35.8731 35.1708 35.7999L35.2258 35.69C35.2574 35.6235 35.2899 35.5552 35.3228 35.4858C35.5573 34.9919 35.8167 34.4454 35.9775 34.1243C36.3992 33.3002 37.1142 32.8423 38.0033 32.8332H42.3208C43.21 32.8423 43.9342 33.3002 44.3558 34.1243C44.5002 34.4127 44.7202 34.8773 44.9322 35.3251C44.9759 35.4175 45.0193 35.5092 45.0617 35.5985L45.1533 35.7999ZM44.4842 39.3161C44.4842 39.7739 44.8509 40.1401 45.3092 40.1401C45.7676 40.1401 46.1434 39.7739 46.1434 39.3161C46.1434 38.8582 45.7676 38.4828 45.3092 38.4828C44.8509 38.4828 44.4842 38.8582 44.4842 39.3161ZM38.5809 40.7357C39.0118 40.3053 39.5709 40.0764 40.1668 40.0764C40.7626 40.0764 41.3218 40.3053 41.7434 40.7265C42.1651 41.1477 42.3943 41.7063 42.3943 42.3014C42.3851 43.5284 41.3951 44.5265 40.1668 44.5265C39.5709 44.5265 39.0118 44.2975 38.5901 43.8763C38.1684 43.4551 37.9393 42.8966 37.9393 42.3014V42.2923C37.9301 41.7154 38.1593 41.1569 38.5809 40.7357ZM42.7058 44.8468C42.055 45.4969 41.1566 45.8998 40.1666 45.8998C39.2042 45.8998 38.3058 45.5244 37.6183 44.8468C36.94 44.1601 36.5642 43.2627 36.5642 42.3013C36.555 41.349 36.9308 40.4517 37.6091 39.765C38.2966 39.0782 39.2042 38.7028 40.1666 38.7028C41.1291 38.7028 42.0366 39.0782 42.715 39.7558C43.3933 40.4425 43.7691 41.349 43.7691 42.3013C43.76 43.2994 43.3566 44.1967 42.7058 44.8468Z" fill="#A1A3B2"/>
<path d="M52.1759 32.9139H51.0731V31.8356C51.0731 31.3753 50.7039 31 50.2491 31C49.7951 31 49.425 31.3753 49.425 31.8356V32.9139H48.3241C47.8692 32.9139 47.5 33.2892 47.5 33.7495C47.5 34.2098 47.8692 34.5852 48.3241 34.5852H49.425V35.6644C49.425 36.1247 49.7951 36.5 50.2491 36.5C50.7039 36.5 51.0731 36.1247 51.0731 35.6644V34.5852H52.1759C52.6299 34.5852 53 34.2098 53 33.7495C53 33.2892 52.6299 32.9139 52.1759 32.9139" fill="#A1A3B2"/>
<rect x="0.5" y="0.5" width="79" height="79" rx="39.5" stroke="#696F79" stroke-opacity="0.16"/>
</svg>